<svg width="2334" height="1531" viewBox="0 0 2334 1531" fill="none" xmlns="http://www.w3.org/2000/svg">
<g filter="url(#filter0_f_226_39)">
<circle cx="836.723" cy="676.255" r="163.259" transform="rotate(13.5895 836.723 676.255)" fill="#FFB547"/>
<ellipse cx="1145.73" cy="579.699" rx="144.576" ry="148.178" transform="rotate(13.5895 1145.73 579.699)" fill="#F500BF"/>
<circle cx="970.385" cy="879.385" r="169.338" transform="rotate(13.5895 970.385 879.385)" fill="#00FFD1"/>
<circle cx="672.588" cy="745.588" r="272.243" transform="rotate(13.5895 672.588 745.588)" fill="#FFA6A6"/>
<rect x="1448.5" y="400.298" width="499.202" height="247.324" transform="rotate(13.5895 1448.5 400.298)" fill="#8F00FF" fill-opacity="0.63"/>
<path d="M1640.84 626.738L1526.37 819.289L1674.13 987.657L1455.63 938.292L1341.16 1130.84L1320.59 907.783L1102.09 858.418L1307.87 769.924L1287.3 546.864L1435.06 715.232L1640.84 626.738Z" fill="#00FFD1" style="mix-blend-mode:darken"/>
</g>
<defs>
<filter id="filter0_f_226_39" x="0.282715" y="0.29834" width="2333.44" height="1530.54" filterUnits="userSpaceOnUse" color-interpolation-filters="sRGB">
<feFlood flood-opacity="0" result="BackgroundImageFix"/>
<feBlend mode="normal" in="SourceGraphic" in2="BackgroundImageFix" result="shape"/>
<feGaussianBlur stdDeviation="200" result="effect1_foregroundBlur_226_39"/>
</filter>
</defs>
</svg>
