<svg width="2413" height="1569" viewBox="0 0 2413 1569" fill="none" xmlns="http://www.w3.org/2000/svg">
<g filter="url(#filter0_f_226_32)">
<circle cx="859.203" cy="690.799" r="171.701" transform="rotate(13.5895 859.203 690.799)" fill="#FFB547"/>
<ellipse cx="1184.19" cy="589.25" rx="152.052" ry="155.841" transform="rotate(13.5895 1184.19 589.25)" fill="#F500BF"/>
<circle cx="999.776" cy="904.433" r="178.094" transform="rotate(13.5895 999.776 904.433)" fill="#00FFD1"/>
<circle cx="686.58" cy="763.718" r="286.321" transform="rotate(13.5895 686.58 763.718)" fill="#FFA6A6"/>
<rect x="1502.62" y="400.572" width="525.017" height="260.114" transform="rotate(13.5895 1502.62 400.572)" fill="#8F00FF" fill-opacity="0.63"/>
<path d="M1704.9 638.722L1584.52 841.23L1739.91 1018.3L1510.11 966.387L1389.72 1168.89L1368.09 934.3L1138.29 882.382L1354.72 789.312L1333.08 554.718L1488.48 731.792L1704.9 638.722Z" fill="#00FFD1" style="mix-blend-mode:darken"/>
</g>
<defs>
<filter id="filter0_f_226_32" x="0.193237" y="0.572266" width="2412.74" height="1568.32" filterUnits="userSpaceOnUse" color-interpolation-filters="sRGB">
<feFlood flood-opacity="0" result="BackgroundImageFix"/>
<feBlend mode="normal" in="SourceGraphic" in2="BackgroundImageFix" result="shape"/>
<feGaussianBlur stdDeviation="200" result="effect1_foregroundBlur_226_32"/>
</filter>
</defs>
</svg>
